<svg width="78" height="78" xmlns="http://www.w3.org/2000/svg" xmlns:xlink="http://www.w3.org/1999/xlink" overflow="hidden"><defs><clipPath id="clip0"><rect x="580" y="248" width="78" height="78"/></clipPath></defs><g clip-path="url(#clip0)" transform="translate(-580 -248)"><path d="M640.206 278.306 640.206 277.9C640.694 264.413 630.131 253.119 616.644 252.55 616.319 252.55 616.075 252.55 615.75 252.55 602.588 252.55 591.862 262.95 591.375 276.112 591.375 276.681 591.375 277.331 591.375 277.9 591.375 285.619 594.869 292.85 600.963 297.562L600.963 297.562 600.963 318.119 626.638 318.119 626.638 308.369 626.638 308.369 630.619 308.369C634.6 308.369 638.825 305.281 639.881 301.462 640.125 300.569 640.287 299.594 640.206 298.619L640.206 293.744 640.206 293.744 643.781 293.744C645.894 293.5 647.763 291.062 645.812 288.056L640.206 278.306ZM644.838 291.225C644.594 291.712 644.188 292.038 643.7 292.119L638.581 292.119 638.581 293.744 638.581 298.619 638.581 298.781C638.581 303.169 635.088 306.744 630.7 306.744 630.7 306.744 630.7 306.744 630.619 306.744L624.931 306.744 624.931 316.494 602.506 316.494 602.506 296.75 601.938 296.263C596.25 291.875 593 285.131 593 277.9L593 277.819C593 277.25 593 276.763 593 276.194 593.406 263.925 603.481 254.175 615.75 254.175 615.994 254.175 616.319 254.175 616.562 254.175 629.156 254.663 638.987 265.225 638.5 277.819L638.5 277.819 638.5 278.712 638.744 279.119 644.35 288.869 644.35 288.869 644.35 288.869C645 289.6 645.162 290.494 644.838 291.225 644.838 291.225 644.838 291.225 644.838 291.225Z" stroke="#002060" stroke-width="1.08336" fill="#FFFFFF"/><path d="M614.775 293.175 614.775 293.175C616.156 293.175 617.294 292.119 617.375 290.737L617.375 290.737 612.175 290.737 612.175 290.737C612.256 292.119 613.394 293.175 614.775 293.175Z" stroke="#002060" stroke-width="1.08336" fill="#FFFFFF"/><path d="M614.775 263.438C609.088 263.438 604.456 268.069 604.375 273.756L604.375 274.081C604.375 275.3 604.619 276.519 605.106 277.656 605.513 278.712 606.162 279.769 606.894 280.581 607.869 281.8 608.681 283.1 609.331 284.562 609.494 284.806 609.737 284.969 610.062 284.969L619.487 284.969C619.812 284.969 620.056 284.806 620.219 284.562 620.869 283.181 621.681 281.8 622.656 280.581 623.469 279.688 624.037 278.712 624.444 277.656 624.85 276.519 625.094 275.3 625.175 274.081L625.175 273.756C625.013 267.987 620.463 263.438 614.775 263.438ZM623.55 274C623.469 275.3 623.225 276.6 622.656 277.737 622.331 278.388 621.925 278.956 621.438 279.525L621.438 279.525 621.438 279.525C620.544 280.663 619.731 281.962 619 283.344L619 283.344 610.55 283.344 610.55 283.344C609.9 282.044 609.088 280.744 608.112 279.525L608.112 279.525 608.112 279.525C607.625 278.956 607.219 278.388 606.894 277.656 606.325 276.519 606.081 275.219 606 274L606 273.675C606.081 268.8 609.981 264.9 614.856 264.981 619.65 265.062 623.469 268.881 623.55 273.675L623.55 274Z" stroke="#002060" stroke-width="1.08336" fill="#FFFFFF"/><path d="M618.756 287.081 610.956 287.081C610.469 287.081 610.144 287.406 610.144 287.894 610.144 288.381 610.469 288.706 610.956 288.706L618.756 288.706C619.244 288.706 619.569 288.381 619.569 287.894 619.569 287.406 619.162 287.081 618.756 287.081Z" stroke="#002060" stroke-width="1.08336" fill="#FFFFFF"/><path d="M614.856 267.987 610.55 276.356C610.55 276.356 610.55 276.356 610.55 276.356L614.856 275.381 614.856 275.381 614.856 280.094C614.856 280.094 614.856 280.094 614.856 280.094L619.325 271.888C619.325 271.888 619.325 271.888 619.325 271.888L614.856 272.781 614.856 272.781 614.856 267.987C614.856 267.987 614.856 267.987 614.856 267.987Z" stroke="#002060" stroke-width="1.08336" fill="#FFFFFF"/></g></svg>